<?xml version="1.0" encoding="UTF-8"?>
<svg version="1.1" xmlns="http://www.w3.org/2000/svg" width="32" height="32">
<path d="M0 0 C4.62 0 9.24 0 14 0 C14 2.64 14 5.28 14 8 C16.64 8 19.28 8 22 8 C22 12.62 22 17.24 22 22 C19.36 22 16.72 22 14 22 C14 24.64 14 27.28 14 30 C9.38 30 4.76 30 0 30 C0 27.36 0 24.72 0 22 C-2.64 22 -5.28 22 -8 22 C-8 17.38 -8 12.76 -8 8 C-5.36 8 -2.72 8 0 8 C0 5.36 0 2.72 0 0 Z M2 2 C2 4.64 2 7.28 2 10 C-0.64 10 -3.28 10 -6 10 C-6 13.3 -6 16.6 -6 20 C-3.36 20 -0.72 20 2 20 C2 22.64 2 25.28 2 28 C5.3 28 8.6 28 12 28 C12 25.36 12 22.72 12 20 C14.64 20 17.28 20 20 20 C20 16.7 20 13.4 20 10 C17.36 10 14.72 10 12 10 C12 7.36 12 4.72 12 2 C8.7 2 5.4 2 2 2 Z " fill="#000000" transform="translate(9,1)"/>
</svg>
