<?xml version="1.0" standalone="no"?>
<!DOCTYPE svg PUBLIC "-//W3C//DTD SVG 20010904//EN"
 "http://www.w3.org/TR/2001/REC-SVG-20010904/DTD/svg10.dtd">
<svg version="1.0" xmlns="http://www.w3.org/2000/svg"
 width="63.000000pt" height="63.000000pt" viewBox="0 0 63.000000 63.000000"
 preserveAspectRatio="xMidYMid meet">

<g transform="translate(0.000000,63.000000) scale(0.100000,-0.100000)"
fill="#000000" stroke="none">
<path d="M286 578 c-8 -13 -26 -49 -40 -80 -26 -59 -31 -63 -111 -73 -128 -16
-131 -23 -43 -112 l61 -62 -13 -91 c-9 -62 -10 -94 -3 -101 7 -7 37 3 94 31
l83 42 85 -41 c56 -29 87 -39 94 -32 7 7 6 40 -3 101 l-13 91 61 62 c88 89 85
98 -43 112 -33 4 -66 11 -74 15 -8 4 -30 41 -50 81 -39 80 -61 94 -85 57z"/>
</g>
</svg>
